<svg xmlns="http://www.w3.org/2000/svg" xmlns:xlink="http://www.w3.org/1999/xlink" xmlns:lucid="lucid" width="907" height="1065"><g transform="translate(1503 1343)" lucid:page-tab-id="0_0"><path d="M-1000-1240h266.36v113H-1000z" stroke="#000" stroke-width="2" fill="#fff"/><path d="M-1000-1207.73h266.36M-1000-1159.2h266.36" stroke="#000" stroke-width="2" fill="none"/><use xlink:href="#a" transform="matrix(1,0,0,1,-992,-1232) translate(59.30370370370372 11.211111111111112)"/><use xlink:href="#b" transform="matrix(1,0,0,1,-992,-1232) translate(141.31481481481484 11.211111111111112)"/><use xlink:href="#c" transform="matrix(1,0,0,1,-992,-1232) translate(148.84567901234567 11.211111111111112)"/><use xlink:href="#d" transform="matrix(1,0,0,1,-988,-1199.7333333333333) translate(0 11.07777777777778)"/><use xlink:href="#e" transform="matrix(1,0,0,1,-988,-1199.7333333333333) translate(45.86296296296295 11.07777777777778)"/><use xlink:href="#f" transform="matrix(1,0,0,1,-988,-1199.7333333333333) translate(82.68888888888887 11.07777777777778)"/><use xlink:href="#g" transform="matrix(1,0,0,1,-988,-1199.7333333333333) translate(94.3617283950617 11.07777777777778)"/><use xlink:href="#h" transform="matrix(1,0,0,1,-988,-1199.7333333333333) translate(0 27.344444444444445)"/><use xlink:href="#e" transform="matrix(1,0,0,1,-988,-1199.7333333333333) translate(51.88765432098765 27.344444444444445)"/><use xlink:href="#f" transform="matrix(1,0,0,1,-988,-1199.7333333333333) translate(88.71358024691358 27.344444444444445)"/><use xlink:href="#i" transform="matrix(1,0,0,1,-988,-1199.7333333333333) translate(100.38641975308641 27.344444444444445)"/><path d="M-1380-1000h320v178h-320z" stroke="#000" stroke-width="2" fill="#fff"/><path d="M-1380-967.73h320m-320 113.6h320" stroke="#000" stroke-width="2" fill="none"/><use xlink:href="#j" transform="matrix(1,0,0,1,-1372,-992) translate(86.66141975308643 11.211111111111112)"/><use xlink:href="#b" transform="matrix(1,0,0,1,-1372,-992) translate(149.12993827160494 11.211111111111112)"/><use xlink:href="#k" transform="matrix(1,0,0,1,-1372,-992) translate(156.6608024691358 11.211111111111112)"/><use xlink:href="#l" transform="matrix(1,0,0,1,-1368,-959.7333333333333) translate(0 11.044444444444448)"/><use xlink:href="#m" transform="matrix(1,0,0,1,-1368,-959.7333333333333) translate(45.86296296296295 11.044444444444448)"/><use xlink:href="#n" transform="matrix(1,0,0,1,-1368,-959.7333333333333) translate(82.68888888888887 11.044444444444448)"/><use xlink:href="#o" transform="matrix(1,0,0,1,-1368,-959.7333333333333) translate(94.3617283950617 11.044444444444448)"/><use xlink:href="#p" transform="matrix(1,0,0,1,-1368,-959.7333333333333) translate(149.52530864197527 11.044444444444448)"/><use xlink:href="#q" transform="matrix(1,0,0,1,-1368,-959.7333333333333) translate(178.8203703703703 11.044444444444448)"/><use xlink:href="#r" transform="matrix(1,0,0,1,-1368,-959.7333333333333) translate(0 27.311111111111114)"/><use xlink:href="#m" transform="matrix(1,0,0,1,-1368,-959.7333333333333) translate(51.88765432098765 27.311111111111114)"/><use xlink:href="#n" transform="matrix(1,0,0,1,-1368,-959.7333333333333) translate(88.71358024691358 27.311111111111114)"/><use xlink:href="#s" transform="matrix(1,0,0,1,-1368,-959.7333333333333) translate(100.38641975308641 27.311111111111114)"/><use xlink:href="#t" transform="matrix(1,0,0,1,-1368,-959.7333333333333) translate(0 43.57777777777778)"/><use xlink:href="#m" transform="matrix(1,0,0,1,-1368,-959.7333333333333) translate(54.1469135802469 43.57777777777778)"/><use xlink:href="#n" transform="matrix(1,0,0,1,-1368,-959.7333333333333) translate(90.97283950617282 43.57777777777778)"/><use xlink:href="#u" transform="matrix(1,0,0,1,-1368,-959.7333333333333) translate(102.64567901234565 43.57777777777778)"/><use xlink:href="#v" transform="matrix(1,0,0,1,-1368,-959.7333333333333) translate(0 59.84444444444445)"/><use xlink:href="#m" transform="matrix(1,0,0,1,-1368,-959.7333333333333) translate(38.3320987654321 59.84444444444445)"/><use xlink:href="#n" transform="matrix(1,0,0,1,-1368,-959.7333333333333) translate(75.15802469135802 59.84444444444445)"/><use xlink:href="#w" transform="matrix(1,0,0,1,-1368,-959.7333333333333) translate(86.83086419753086 59.84444444444445)"/><use xlink:href="#x" transform="matrix(1,0,0,1,-1368,-959.7333333333333) translate(0 76.11111111111111)"/><use xlink:href="#n" transform="matrix(1,0,0,1,-1368,-959.7333333333333) translate(86.4543209876543 76.11111111111111)"/><use xlink:href="#y" transform="matrix(1,0,0,1,-1368,-959.7333333333333) translate(98.12716049382713 76.11111111111111)"/><use xlink:href="#z" transform="matrix(1,0,0,1,-1368,-959.7333333333333) translate(0 92.37777777777778)"/><use xlink:href="#A" transform="matrix(1,0,0,1,-1368,-959.7333333333333) translate(30.83888888888889 92.37777777777778)"/><use xlink:href="#B" transform="matrix(1,0,0,1,-1368,-959.7333333333333) translate(46.27716049382716 92.37777777777778)"/><path d="M-1372.76-753h320v178h-320z" stroke="#000" stroke-width="2" fill="#fff"/><path d="M-1372.76-720.73h320m-320 113.6h320" stroke="#000" stroke-width="2" fill="none"/><use xlink:href="#C" transform="matrix(1,0,0,1,-1364.761166186207,-745) translate(86.16141975308643 11.211111111111112)"/><use xlink:href="#b" transform="matrix(1,0,0,1,-1364.761166186207,-745) translate(148.62993827160494 11.211111111111112)"/><use xlink:href="#k" transform="matrix(1,0,0,1,-1364.761166186207,-745) translate(156.1608024691358 11.211111111111112)"/><use xlink:href="#l" transform="matrix(1,0,0,1,-1360.761166186207,-712.7333333333333) translate(0 11.044444444444448)"/><use xlink:href="#m" transform="matrix(1,0,0,1,-1360.761166186207,-712.7333333333333) translate(45.86296296296295 11.044444444444448)"/><use xlink:href="#n" transform="matrix(1,0,0,1,-1360.761166186207,-712.7333333333333) translate(82.68888888888887 11.044444444444448)"/><use xlink:href="#D" transform="matrix(1,0,0,1,-1360.761166186207,-712.7333333333333) translate(94.3617283950617 11.044444444444448)"/><use xlink:href="#E" transform="matrix(1,0,0,1,-1360.761166186207,-712.7333333333333) translate(157.84691358024688 11.044444444444448)"/><use xlink:href="#r" transform="matrix(1,0,0,1,-1360.761166186207,-712.7333333333333) translate(0 27.311111111111114)"/><use xlink:href="#m" transform="matrix(1,0,0,1,-1360.761166186207,-712.7333333333333) translate(51.88765432098765 27.311111111111114)"/><use xlink:href="#n" transform="matrix(1,0,0,1,-1360.761166186207,-712.7333333333333) translate(88.71358024691358 27.311111111111114)"/><use xlink:href="#F" transform="matrix(1,0,0,1,-1360.761166186207,-712.7333333333333) translate(100.38641975308641 27.311111111111114)"/><use xlink:href="#t" transform="matrix(1,0,0,1,-1360.761166186207,-712.7333333333333) translate(0 43.57777777777778)"/><use xlink:href="#m" transform="matrix(1,0,0,1,-1360.761166186207,-712.7333333333333) translate(54.1469135802469 43.57777777777778)"/><use xlink:href="#n" transform="matrix(1,0,0,1,-1360.761166186207,-712.7333333333333) translate(90.97283950617282 43.57777777777778)"/><use xlink:href="#G" transform="matrix(1,0,0,1,-1360.761166186207,-712.7333333333333) translate(102.64567901234565 43.57777777777778)"/><use xlink:href="#v" transform="matrix(1,0,0,1,-1360.761166186207,-712.7333333333333) translate(0 59.84444444444445)"/><use xlink:href="#m" transform="matrix(1,0,0,1,-1360.761166186207,-712.7333333333333) translate(38.3320987654321 59.84444444444445)"/><use xlink:href="#n" transform="matrix(1,0,0,1,-1360.761166186207,-712.7333333333333) translate(75.15802469135802 59.84444444444445)"/><use xlink:href="#H" transform="matrix(1,0,0,1,-1360.761166186207,-712.7333333333333) translate(86.83086419753086 59.84444444444445)"/><use xlink:href="#x" transform="matrix(1,0,0,1,-1360.761166186207,-712.7333333333333) translate(0 76.11111111111111)"/><use xlink:href="#n" transform="matrix(1,0,0,1,-1360.761166186207,-712.7333333333333) translate(86.4543209876543 76.11111111111111)"/><use xlink:href="#I" transform="matrix(1,0,0,1,-1360.761166186207,-712.7333333333333) translate(98.12716049382713 76.11111111111111)"/><use xlink:href="#J" transform="matrix(1,0,0,1,-1360.761166186207,-712.7333333333333) translate(148.05679012345675 76.11111111111111)"/><use xlink:href="#K" transform="matrix(1,0,0,1,-1360.761166186207,-712.7333333333333) translate(188.6481481481481 76.11111111111111)"/><use xlink:href="#z" transform="matrix(1,0,0,1,-1360.761166186207,-712.7333333333333) translate(0 92.37777777777778)"/><use xlink:href="#A" transform="matrix(1,0,0,1,-1360.761166186207,-712.7333333333333) translate(30.83888888888889 92.37777777777778)"/><use xlink:href="#L" transform="matrix(1,0,0,1,-1360.761166186207,-712.7333333333333) translate(46.27716049382716 92.37777777777778)"/><path d="M-1372.76-500h320v178h-320z" stroke="#000" stroke-width="2" fill="#fff"/><path d="M-1372.76-467.73h320m-320 113.6h320" stroke="#000" stroke-width="2" fill="none"/><g><use xlink:href="#M" transform="matrix(1,0,0,1,-1364.761166186207,-492) translate(86.16141975308643 11.211111111111112)"/><use xlink:href="#b" transform="matrix(1,0,0,1,-1364.761166186207,-492) translate(148.62993827160494 11.211111111111112)"/><use xlink:href="#k" transform="matrix(1,0,0,1,-1364.761166186207,-492) translate(156.1608024691358 11.211111111111112)"/></g><g><use xlink:href="#l" transform="matrix(1,0,0,1,-1360.761166186207,-459.73333333333335) translate(0 11.044444444444448)"/><use xlink:href="#m" transform="matrix(1,0,0,1,-1360.761166186207,-459.73333333333335) translate(45.86296296296295 11.044444444444448)"/><use xlink:href="#n" transform="matrix(1,0,0,1,-1360.761166186207,-459.73333333333335) translate(82.68888888888887 11.044444444444448)"/><use xlink:href="#N" transform="matrix(1,0,0,1,-1360.761166186207,-459.73333333333335) translate(94.3617283950617 11.044444444444448)"/><use xlink:href="#O" transform="matrix(1,0,0,1,-1360.761166186207,-459.73333333333335) translate(146.5506172839506 11.044444444444448)"/><use xlink:href="#r" transform="matrix(1,0,0,1,-1360.761166186207,-459.73333333333335) translate(0 27.311111111111114)"/><use xlink:href="#m" transform="matrix(1,0,0,1,-1360.761166186207,-459.73333333333335) translate(51.88765432098765 27.311111111111114)"/><use xlink:href="#n" transform="matrix(1,0,0,1,-1360.761166186207,-459.73333333333335) translate(88.71358024691358 27.311111111111114)"/><use xlink:href="#P" transform="matrix(1,0,0,1,-1360.761166186207,-459.73333333333335) translate(100.38641975308641 27.311111111111114)"/><use xlink:href="#t" transform="matrix(1,0,0,1,-1360.761166186207,-459.73333333333335) translate(0 43.57777777777778)"/><use xlink:href="#m" transform="matrix(1,0,0,1,-1360.761166186207,-459.73333333333335) translate(54.1469135802469 43.57777777777778)"/><use xlink:href="#n" transform="matrix(1,0,0,1,-1360.761166186207,-459.73333333333335) translate(90.97283950617282 43.57777777777778)"/><use xlink:href="#G" transform="matrix(1,0,0,1,-1360.761166186207,-459.73333333333335) translate(102.64567901234565 43.57777777777778)"/><use xlink:href="#v" transform="matrix(1,0,0,1,-1360.761166186207,-459.73333333333335) translate(0 59.84444444444445)"/><use xlink:href="#m" transform="matrix(1,0,0,1,-1360.761166186207,-459.73333333333335) translate(38.3320987654321 59.84444444444445)"/><use xlink:href="#n" transform="matrix(1,0,0,1,-1360.761166186207,-459.73333333333335) translate(75.15802469135802 59.84444444444445)"/><use xlink:href="#w" transform="matrix(1,0,0,1,-1360.761166186207,-459.73333333333335) translate(86.83086419753086 59.84444444444445)"/><use xlink:href="#x" transform="matrix(1,0,0,1,-1360.761166186207,-459.73333333333335) translate(0 76.11111111111111)"/><use xlink:href="#n" transform="matrix(1,0,0,1,-1360.761166186207,-459.73333333333335) translate(86.4543209876543 76.11111111111111)"/><use xlink:href="#Q" transform="matrix(1,0,0,1,-1360.761166186207,-459.73333333333335) translate(98.12716049382713 76.11111111111111)"/><use xlink:href="#K" transform="matrix(1,0,0,1,-1360.761166186207,-459.73333333333335) translate(157.7716049382716 76.11111111111111)"/><use xlink:href="#z" transform="matrix(1,0,0,1,-1360.761166186207,-459.73333333333335) translate(0 92.37777777777778)"/><use xlink:href="#A" transform="matrix(1,0,0,1,-1360.761166186207,-459.73333333333335) translate(30.83888888888889 92.37777777777778)"/><use xlink:href="#R" transform="matrix(1,0,0,1,-1360.761166186207,-459.73333333333335) translate(46.27716049382716 92.37777777777778)"/></g><path d="M-906.36-660H-640v113h-266.36z" stroke="#000" stroke-width="2" fill="#fff"/><path d="M-906.36-627.73H-640m-266.36 48.53H-640" stroke="#000" stroke-width="2" fill="none"/><g><use xlink:href="#S" transform="matrix(1,0,0,1,-898.3561186407384,-652) translate(48.760493827160516 11.211111111111112)"/><use xlink:href="#b" transform="matrix(1,0,0,1,-898.3561186407384,-652) translate(157.88271604938268 11.211111111111112)"/><use xlink:href="#T" transform="matrix(1,0,0,1,-898.3561186407384,-652) translate(165.41358024691357 11.211111111111112)"/></g><g><use xlink:href="#l" transform="matrix(1,0,0,1,-894.3561186407384,-619.7333333333333) translate(0 11.07777777777778)"/><use xlink:href="#m" transform="matrix(1,0,0,1,-894.3561186407384,-619.7333333333333) translate(45.86296296296295 11.07777777777778)"/><use xlink:href="#n" transform="matrix(1,0,0,1,-894.3561186407384,-619.7333333333333) translate(82.68888888888887 11.07777777777778)"/><use xlink:href="#U" transform="matrix(1,0,0,1,-894.3561186407384,-619.7333333333333) translate(94.3617283950617 11.07777777777778)"/><use xlink:href="#V" transform="matrix(1,0,0,1,-894.3561186407384,-619.7333333333333) translate(161.61234567901232 11.07777777777778)"/><use xlink:href="#r" transform="matrix(1,0,0,1,-894.3561186407384,-619.7333333333333) translate(0 27.344444444444445)"/><use xlink:href="#m" transform="matrix(1,0,0,1,-894.3561186407384,-619.7333333333333) translate(51.88765432098765 27.344444444444445)"/><use xlink:href="#n" transform="matrix(1,0,0,1,-894.3561186407384,-619.7333333333333) translate(88.71358024691358 27.344444444444445)"/><use xlink:href="#W" transform="matrix(1,0,0,1,-894.3561186407384,-619.7333333333333) translate(100.38641975308641 27.344444444444445)"/></g><path d="M-940-1040h300v129h-300z" stroke="#000" stroke-width="2" fill="#fff"/><path d="M-940-1007.73h300m-300 64.8h300" stroke="#000" stroke-width="2" fill="none"/><g><use xlink:href="#X" transform="matrix(1,0,0,1,-932,-1032) translate(71.28518518518521 11.211111111111112)"/><use xlink:href="#Y" transform="matrix(1,0,0,1,-932,-1032) translate(114.13580246913583 11.211111111111112)"/></g><g><use xlink:href="#Z" transform="matrix(1,0,0,1,-928,-999.7333333333333) translate(0 10.944444444444443)"/><use xlink:href="#b" transform="matrix(1,0,0,1,-928,-999.7333333333333) translate(91.01049382716047 10.944444444444443)"/><use xlink:href="#m" transform="matrix(1,0,0,1,-928,-999.7333333333333) translate(98.54135802469133 10.944444444444443)"/><use xlink:href="#n" transform="matrix(1,0,0,1,-928,-999.7333333333333) translate(135.36728395061726 10.944444444444443)"/><use xlink:href="#aa" transform="matrix(1,0,0,1,-928,-999.7333333333333) translate(147.0401234567901 10.944444444444443)"/><use xlink:href="#ab" transform="matrix(1,0,0,1,-928,-999.7333333333333) translate(180.40185185185183 10.944444444444443)"/><use xlink:href="#ac" transform="matrix(1,0,0,1,-928,-999.7333333333333) translate(229.2018518518518 10.944444444444443)"/><use xlink:href="#ad" transform="matrix(1,0,0,1,-928,-999.7333333333333) translate(0 27.21111111111111)"/><use xlink:href="#m" transform="matrix(1,0,0,1,-928,-999.7333333333333) translate(69.09567901234568 27.21111111111111)"/><use xlink:href="#n" transform="matrix(1,0,0,1,-928,-999.7333333333333) translate(105.9216049382716 27.21111111111111)"/><use xlink:href="#ae" transform="matrix(1,0,0,1,-928,-999.7333333333333) translate(117.59444444444443 27.21111111111111)"/><use xlink:href="#af" transform="matrix(1,0,0,1,-928,-999.7333333333333) translate(0 43.477777777777774)"/><use xlink:href="#ag" transform="matrix(1,0,0,1,-928,-999.7333333333333) translate(141.5049382716049 43.477777777777774)"/><use xlink:href="#n" transform="matrix(1,0,0,1,-928,-999.7333333333333) translate(159.54135802469133 43.477777777777774)"/><use xlink:href="#ah" transform="matrix(1,0,0,1,-928,-999.7333333333333) translate(171.21419753086417 43.477777777777774)"/></g><path d="M-1002-1183.5h-218v181.5" stroke="#000" stroke-width="2" fill="none"/><path d="M-1001-1182.5h-1.03v-2h1.03zM-1219-1001h-2v-1.03h2z" stroke="#000" stroke-width=".05"/><path d="M-866.82-1242v-39h-546.94v617h39" stroke="#000" stroke-width="2" fill="none"/><path d="M-865.82-1241h-2v-1.03h2zM-1373.76-663h-1.03v-2h1.04z" stroke="#000" stroke-width=".05"/><path d="M-731.64-1183.5h39V-1340H-1499" stroke="#000" stroke-width="2" fill="none"/><path d="M-731.62-1182.5h-1.02v-2h1.02z" stroke="#000" stroke-width=".05"/><path d="M-1498.97-1340h-1.03M-1374.76-411h-112.48v-928" stroke="#000" stroke-width="2" fill="none"/><path d="M-1373.76-410h-1.03v-2h1.04z" stroke="#000" stroke-width=".05"/><path d="M-1487.24-1338.97v-1.03M-1050.76-664h54.38v-311.5H-942" stroke="#000" stroke-width="2" fill="none"/><path d="M-1050.74-663h-1.02v-2h1.02zM-941-974.5h-1.03v-2h1.03z" stroke="#000" stroke-width=".05"/><path d="M-1058-911h38v-188" stroke="#000" stroke-width="2" fill="none"/><path d="M-1057.97-910h-1.03v-2h1.03z" stroke="#000" stroke-width=".05"/><path d="M-1020-1098.97v-1.03M-790-1042v-58h-229" stroke="#000" stroke-width="2" fill="none"/><path d="M-789-1041h-2v-1.03h2z" stroke="#000" stroke-width=".05"/><path d="M-1018.97-1100h-1.03M-1220-820v20h459" stroke="#000" stroke-width="2" fill="none"/><path d="M-1219-819.97h-2V-821h2z" stroke="#000" stroke-width=".05"/><path d="M-761.03-800h1.03M-773.18-662v-137" stroke="#000" stroke-width="2" fill="none"/><path d="M-772.18-661h-2v-1.03h2z" stroke="#000" stroke-width=".05"/><path d="M-773.18-798.97V-800M-1212.76-573v39h265.4v-69.5h39" stroke="#000" stroke-width="2" fill="none"/><path d="M-1211.76-572.97h-2V-574h2zM-907.36-602.5h-1.02v-2h1.02z" stroke="#000" stroke-width=".05"/><path d="M-1212.76-320v39H-599v-694.5h-39" stroke="#000" stroke-width="2" fill="none"/><path d="M-1211.76-319.97h-2V-321h2zM-637.97-974.5H-639v-2h1.03z" stroke="#000" stroke-width=".05"/><path d="M-1050.76-411h277.58v-134" stroke="#000" stroke-width="2" fill="none"/><path d="M-1050.74-410h-1.02v-2h1.02zM-772.18-544.97h-2V-546h2z" stroke="#000" stroke-width=".05"/><defs><path d="M115-194c55 1 70 41 70 98S169 2 115 4C84 4 66-9 55-30l1 105H24l-1-265h31l2 30c10-21 28-34 59-34zm-8 174c40 0 45-34 45-75s-6-73-45-74c-42 0-51 32-51 76 0 43 10 73 51 73" id="ai"/><path d="M135-143c-3-34-86-38-87 0 15 53 115 12 119 90S17 21 10-45l28-5c4 36 97 45 98 0-10-56-113-15-118-90-4-57 82-63 122-42 12 7 21 19 24 35" id="aj"/><path d="M85-194c31 0 48 13 60 33l-1-100h32l1 261h-30c-2-10 0-23-3-31C134-8 116 4 85 4 32 4 16-35 15-94c0-66 23-100 70-100zm9 24c-40 0-46 34-46 75 0 40 6 74 45 74 42 0 51-32 51-76 0-42-9-74-50-73" id="ak"/><path d="M115-194c53 0 69 39 70 98 0 66-23 100-70 100C84 3 66-7 56-30L54 0H23l1-261h32v101c10-23 28-34 59-34zm-8 174c40 0 45-34 45-75 0-40-5-75-45-74-42 0-51 32-51 76 0 43 10 73 51 73" id="al"/><path d="M-5 72V49h209v23H-5" id="am"/><path d="M141-36C126-15 110 5 73 4 37 3 15-17 15-53c-1-64 63-63 125-63 3-35-9-54-41-54-24 1-41 7-42 31l-33-3c5-37 33-52 76-52 45 0 72 20 72 64v82c-1 20 7 32 28 27v20c-31 9-61-2-59-35zM48-53c0 20 12 33 32 33 41-3 63-29 60-74-43 2-92-5-92 41" id="an"/><path d="M114-163C36-179 61-72 57 0H25l-1-190h30c1 12-1 29 2 39 6-27 23-49 58-41v29" id="ao"/><path d="M59-47c-2 24 18 29 38 22v24C64 9 27 4 27-40v-127H5v-23h24l9-43h21v43h35v23H59v120" id="ap"/><path d="M24-231v-30h32v30H24zM24 0v-190h32V0H24" id="aq"/><path d="M100-194c62-1 85 37 85 99 1 63-27 99-86 99S16-35 15-95c0-66 28-99 85-99zM99-20c44 1 53-31 53-75 0-43-8-75-51-75s-53 32-53 75 10 74 51 75" id="ar"/><g id="a"><use transform="matrix(0.03765432098765432,0,0,0.03765432098765432,0,0)" xlink:href="#ai"/><use transform="matrix(0.03765432098765432,0,0,0.03765432098765432,7.530864197530864,0)" xlink:href="#aj"/><use transform="matrix(0.03765432098765432,0,0,0.03765432098765432,14.30864197530864,0)" xlink:href="#ak"/><use transform="matrix(0.03765432098765432,0,0,0.03765432098765432,21.83950617283951,0)" xlink:href="#al"/><use transform="matrix(0.03765432098765432,0,0,0.03765432098765432,29.37037037037037,0)" xlink:href="#am"/><use transform="matrix(0.03765432098765432,0,0,0.03765432098765432,36.901234567901234,0)" xlink:href="#ai"/><use transform="matrix(0.03765432098765432,0,0,0.03765432098765432,44.4320987654321,0)" xlink:href="#an"/><use transform="matrix(0.03765432098765432,0,0,0.03765432098765432,51.962962962962955,0)" xlink:href="#ao"/><use transform="matrix(0.03765432098765432,0,0,0.03765432098765432,56.443827160493825,0)" xlink:href="#ap"/><use transform="matrix(0.03765432098765432,0,0,0.03765432098765432,60.209259259259255,0)" xlink:href="#aq"/><use transform="matrix(0.03765432098765432,0,0,0.03765432098765432,63.18395061728395,0)" xlink:href="#ak"/><use transform="matrix(0.03765432098765432,0,0,0.03765432098765432,70.71481481481482,0)" xlink:href="#ar"/></g><path d="M33-154v-36h34v36H33zM33 0v-36h34V0H33" id="as"/><use transform="matrix(0.03765432098765432,0,0,0.03765432098765432,0,0)" xlink:href="#as" id="b"/><path d="M30-248c87 1 191-15 191 75 0 78-77 80-158 76V0H30v-248zm33 125c57 0 124 11 124-50 0-59-68-47-124-48v98" id="at"/><g id="c"><use transform="matrix(0.03765432098765432,0,0,0.03765432098765432,0,0)" xlink:href="#at"/><use transform="matrix(0.03765432098765432,0,0,0.03765432098765432,9.037037037037036,0)" xlink:href="#an"/><use transform="matrix(0.03765432098765432,0,0,0.03765432098765432,16.5679012345679,0)" xlink:href="#ao"/><use transform="matrix(0.03765432098765432,0,0,0.03765432098765432,21.048765432098765,0)" xlink:href="#ap"/><use transform="matrix(0.03765432098765432,0,0,0.03765432098765432,24.81419753086419,0)" xlink:href="#aq"/><use transform="matrix(0.03765432098765432,0,0,0.03765432098765432,27.788888888888888,0)" xlink:href="#ak"/><use transform="matrix(0.03765432098765432,0,0,0.03765432098765432,35.31975308641975,0)" xlink:href="#ar"/></g><path d="M16-82v-28h88v28H16" id="au"/><path d="M117-194c89-4 53 116 60 194h-32v-121c0-31-8-49-39-48C34-167 62-67 57 0H25l-1-190h30c1 10-1 24 2 32 11-22 29-35 61-36" id="av"/><path d="M210-169c-67 3-38 105-44 169h-31v-121c0-29-5-50-35-48C34-165 62-65 56 0H25l-1-190h30c1 10-1 24 2 32 10-44 99-50 107 0 11-21 27-35 58-36 85-2 47 119 55 194h-31v-121c0-29-5-49-35-48" id="aw"/><path d="M100-194c63 0 86 42 84 106H49c0 40 14 67 53 68 26 1 43-12 49-29l28 8c-11 28-37 45-77 45C44 4 14-33 15-96c1-61 26-98 85-98zm52 81c6-60-76-77-97-28-3 7-6 17-6 28h103" id="ax"/><g id="d"><use transform="matrix(0.03765432098765432,0,0,0.03765432098765432,0,0)" xlink:href="#au"/><use transform="matrix(0.03765432098765432,0,0,0.03765432098765432,4.480864197530864,0)" xlink:href="#av"/><use transform="matrix(0.03765432098765432,0,0,0.03765432098765432,12.011728395061727,0)" xlink:href="#ar"/><use transform="matrix(0.03765432098765432,0,0,0.03765432098765432,19.54259259259259,0)" xlink:href="#aw"/><use transform="matrix(0.03765432098765432,0,0,0.03765432098765432,30.801234567901233,0)" xlink:href="#ax"/><use transform="matrix(0.03765432098765432,0,0,0.03765432098765432,38.33209876543209,0)" xlink:href="#as"/></g><path d="M177-190C167-65 218 103 67 71c-23-6-38-20-44-43l32-5c15 47 100 32 89-28v-30C133-14 115 1 83 1 29 1 15-40 15-95c0-56 16-97 71-98 29-1 48 16 59 35 1-10 0-23 2-32h30zM94-22c36 0 50-32 50-73 0-42-14-75-50-75-39 0-46 34-46 75s6 73 46 73" id="ay"/><g id="e"><use transform="matrix(0.03765432098765432,0,0,0.03765432098765432,0,0)" xlink:href="#aj"/><use transform="matrix(0.03765432098765432,0,0,0.03765432098765432,6.777777777777777,0)" xlink:href="#ap"/><use transform="matrix(0.03765432098765432,0,0,0.03765432098765432,10.543209876543209,0)" xlink:href="#ao"/><use transform="matrix(0.03765432098765432,0,0,0.03765432098765432,15.024074074074072,0)" xlink:href="#aq"/><use transform="matrix(0.03765432098765432,0,0,0.03765432098765432,17.998765432098764,0)" xlink:href="#av"/><use transform="matrix(0.03765432098765432,0,0,0.03765432098765432,25.52962962962963,0)" xlink:href="#ay"/></g><path d="M18-150v-26h174v26H18zm0 90v-26h174v26H18" id="az"/><use transform="matrix(0.03765432098765432,0,0,0.03765432098765432,0,0)" xlink:href="#az" id="f"/><path d="M109-170H84l-4-78h32zm-65 0H19l-4-78h33" id="aA"/><path d="M185-189c-5-48-123-54-124 2 14 75 158 14 163 119 3 78-121 87-175 55-17-10-28-26-33-46l33-7c5 56 141 63 141-1 0-78-155-14-162-118-5-82 145-84 179-34 5 7 8 16 11 25" id="aB"/><path d="M30-248c118-7 216 8 213 122C240-48 200 0 122 0H30v-248zM63-27c89 8 146-16 146-99s-60-101-146-95v194" id="aC"/><g id="g"><use transform="matrix(0.03765432098765432,0,0,0.03765432098765432,0,0)" xlink:href="#aA"/><use transform="matrix(0.03765432098765432,0,0,0.03765432098765432,4.7820987654320986,0)" xlink:href="#at"/><use transform="matrix(0.03765432098765432,0,0,0.03765432098765432,13.819135802469134,0)" xlink:href="#aB"/><use transform="matrix(0.03765432098765432,0,0,0.03765432098765432,22.856172839506172,0)" xlink:href="#aC"/><use transform="matrix(0.03765432098765432,0,0,0.03765432098765432,32.60864197530864,0)" xlink:href="#aC"/><use transform="matrix(0.03765432098765432,0,0,0.03765432098765432,42.361111111111114,0)" xlink:href="#aA"/></g><path d="M96-169c-40 0-48 33-48 73s9 75 48 75c24 0 41-14 43-38l32 2c-6 37-31 61-74 61-59 0-76-41-82-99-10-93 101-131 147-64 4 7 5 14 7 22l-32 3c-4-21-16-35-41-35" id="aD"/><path d="M100-194c62-1 85 37 85 99 1 63-27 99-86 99S16-35 15-95c0-66 28-99 85-99zM99-20c44 1 53-31 53-75 0-43-8-75-51-75s-53 32-53 75 10 74 51 75zM76-211c8-23 27-35 38-54h36v5l-58 49H76" id="aE"/><g id="h"><use transform="matrix(0.03765432098765432,0,0,0.03765432098765432,0,0)" xlink:href="#au"/><use transform="matrix(0.03765432098765432,0,0,0.03765432098765432,4.480864197530864,0)" xlink:href="#aD"/><use transform="matrix(0.03765432098765432,0,0,0.03765432098765432,11.258641975308642,0)" xlink:href="#aE"/><use transform="matrix(0.03765432098765432,0,0,0.03765432098765432,18.789506172839506,0)" xlink:href="#ak"/><use transform="matrix(0.03765432098765432,0,0,0.03765432098765432,26.32037037037037,0)" xlink:href="#aq"/><use transform="matrix(0.03765432098765432,0,0,0.03765432098765432,29.295061728395062,0)" xlink:href="#ay"/><use transform="matrix(0.03765432098765432,0,0,0.03765432098765432,36.82592592592593,0)" xlink:href="#ar"/><use transform="matrix(0.03765432098765432,0,0,0.03765432098765432,44.35679012345678,0)" xlink:href="#as"/></g><path d="M155-56V0h-30v-56H8v-25l114-167h33v167h35v25h-35zm-30-156c-27 46-58 90-88 131h88v-131" id="aF"/><path d="M54-142c48-35 137-8 131 61C196 18 31 33 14-55l32-4c7 23 22 37 52 37 35-1 51-22 54-58 4-55-73-65-99-34H22l8-134h141v27H59" id="aG"/><g id="i"><use transform="matrix(0.03765432098765432,0,0,0.03765432098765432,0,0)" xlink:href="#aA"/><use transform="matrix(0.03765432098765432,0,0,0.03765432098765432,4.7820987654320986,0)" xlink:href="#aF"/><use transform="matrix(0.03765432098765432,0,0,0.03765432098765432,12.312962962962963,0)" xlink:href="#aG"/><use transform="matrix(0.03765432098765432,0,0,0.03765432098765432,19.843827160493824,0)" xlink:href="#aA"/></g><path d="M27 0v-27h64v-190l-56 39v-29l58-41h29v221h61V0H27" id="aH"/><g id="j"><use transform="matrix(0.03765432098765432,0,0,0.03765432098765432,0,0)" xlink:href="#aD"/><use transform="matrix(0.03765432098765432,0,0,0.03765432098765432,6.777777777777777,0)" xlink:href="#an"/><use transform="matrix(0.03765432098765432,0,0,0.03765432098765432,14.30864197530864,0)" xlink:href="#ak"/><use transform="matrix(0.03765432098765432,0,0,0.03765432098765432,21.83950617283951,0)" xlink:href="#aq"/><use transform="matrix(0.03765432098765432,0,0,0.03765432098765432,24.8141975308642,0)" xlink:href="#ak"/><use transform="matrix(0.03765432098765432,0,0,0.03765432098765432,32.345061728395066,0)" xlink:href="#an"/><use transform="matrix(0.03765432098765432,0,0,0.03765432098765432,39.875925925925934,0)" xlink:href="#ap"/><use transform="matrix(0.03765432098765432,0,0,0.03765432098765432,43.64135802469136,0)" xlink:href="#ar"/><use transform="matrix(0.03765432098765432,0,0,0.03765432098765432,51.17222222222222,0)" xlink:href="#aH"/></g><path d="M212-179c-10-28-35-45-73-45-59 0-87 40-87 99 0 60 29 101 89 101 43 0 62-24 78-52l27 14C228-24 195 4 139 4 59 4 22-46 18-125c-6-104 99-153 187-111 19 9 31 26 39 46" id="aI"/><g id="k"><use transform="matrix(0.03765432098765432,0,0,0.03765432098765432,0,0)" xlink:href="#aI"/><use transform="matrix(0.03765432098765432,0,0,0.03765432098765432,9.752469135802468,0)" xlink:href="#an"/><use transform="matrix(0.03765432098765432,0,0,0.03765432098765432,17.28333333333333,0)" xlink:href="#av"/><use transform="matrix(0.03765432098765432,0,0,0.03765432098765432,24.814197530864195,0)" xlink:href="#ak"/><use transform="matrix(0.03765432098765432,0,0,0.03765432098765432,32.34506172839506,0)" xlink:href="#aq"/><use transform="matrix(0.03765432098765432,0,0,0.03765432098765432,35.31975308641975,0)" xlink:href="#ak"/><use transform="matrix(0.03765432098765432,0,0,0.03765432098765432,42.85061728395061,0)" xlink:href="#an"/><use transform="matrix(0.03765432098765432,0,0,0.03765432098765432,50.381481481481465,0)" xlink:href="#ap"/><use transform="matrix(0.03765432098765432,0,0,0.03765432098765432,54.1469135802469,0)" xlink:href="#ar"/></g><g id="l"><use transform="matrix(0.03765432098765432,0,0,0.03765432098765432,0,0)" xlink:href="#au"/><use transform="matrix(0.03765432098765432,0,0,0.03765432098765432,4.480864197530864,0)" xlink:href="#av"/><use transform="matrix(0.03765432098765432,0,0,0.03765432098765432,12.011728395061727,0)" xlink:href="#ar"/><use transform="matrix(0.03765432098765432,0,0,0.03765432098765432,19.54259259259259,0)" xlink:href="#aw"/><use transform="matrix(0.03765432098765432,0,0,0.03765432098765432,30.801234567901233,0)" xlink:href="#ax"/><use transform="matrix(0.03765432098765432,0,0,0.03765432098765432,38.33209876543209,0)" xlink:href="#as"/></g><g id="m"><use transform="matrix(0.03765432098765432,0,0,0.03765432098765432,0,0)" xlink:href="#aj"/><use transform="matrix(0.03765432098765432,0,0,0.03765432098765432,6.777777777777777,0)" xlink:href="#ap"/><use transform="matrix(0.03765432098765432,0,0,0.03765432098765432,10.543209876543209,0)" xlink:href="#ao"/><use transform="matrix(0.03765432098765432,0,0,0.03765432098765432,15.024074074074072,0)" xlink:href="#aq"/><use transform="matrix(0.03765432098765432,0,0,0.03765432098765432,17.998765432098764,0)" xlink:href="#av"/><use transform="matrix(0.03765432098765432,0,0,0.03765432098765432,25.52962962962963,0)" xlink:href="#ay"/></g><use transform="matrix(0.03765432098765432,0,0,0.03765432098765432,0,0)" xlink:href="#az" id="n"/><path d="M205 0l-28-72H64L36 0H1l101-248h38L239 0h-34zm-38-99l-47-123c-12 45-31 82-46 123h93" id="aJ"/><g id="o"><use transform="matrix(0.03765432098765432,0,0,0.03765432098765432,0,0)" xlink:href="#aA"/><use transform="matrix(0.03765432098765432,0,0,0.03765432098765432,4.7820987654320986,0)" xlink:href="#aJ"/><use transform="matrix(0.03765432098765432,0,0,0.03765432098765432,13.819135802469134,0)" xlink:href="#ak"/><use transform="matrix(0.03765432098765432,0,0,0.03765432098765432,21.349999999999998,0)" xlink:href="#ao"/><use transform="matrix(0.03765432098765432,0,0,0.03765432098765432,25.83086419753086,0)" xlink:href="#aq"/><use transform="matrix(0.03765432098765432,0,0,0.03765432098765432,28.805555555555554,0)" xlink:href="#an"/><use transform="matrix(0.03765432098765432,0,0,0.03765432098765432,36.33641975308642,0)" xlink:href="#av"/><use transform="matrix(0.03765432098765432,0,0,0.03765432098765432,43.86728395061728,0)" xlink:href="#an"/></g><path d="M209 0H11v-25l151-195H24v-28h176v25L50-27h159V0" id="aK"/><path d="M143 0L79-87 56-68V0H24v-261h32v163l83-92h37l-77 82L181 0h-38" id="aL"/><g id="p"><use transform="matrix(0.03765432098765432,0,0,0.03765432098765432,0,0)" xlink:href="#aK"/><use transform="matrix(0.03765432098765432,0,0,0.03765432098765432,8.246296296296295,0)" xlink:href="#aq"/><use transform="matrix(0.03765432098765432,0,0,0.03765432098765432,11.220987654320986,0)" xlink:href="#av"/><use transform="matrix(0.03765432098765432,0,0,0.03765432098765432,18.75185185185185,0)" xlink:href="#aL"/></g><use transform="matrix(0.03765432098765432,0,0,0.03765432098765432,0,0)" xlink:href="#aA" id="q"/><g id="r"><use transform="matrix(0.03765432098765432,0,0,0.03765432098765432,0,0)" xlink:href="#au"/><use transform="matrix(0.03765432098765432,0,0,0.03765432098765432,4.480864197530864,0)" xlink:href="#aD"/><use transform="matrix(0.03765432098765432,0,0,0.03765432098765432,11.258641975308642,0)" xlink:href="#aE"/><use transform="matrix(0.03765432098765432,0,0,0.03765432098765432,18.789506172839506,0)" xlink:href="#ak"/><use transform="matrix(0.03765432098765432,0,0,0.03765432098765432,26.32037037037037,0)" xlink:href="#aq"/><use transform="matrix(0.03765432098765432,0,0,0.03765432098765432,29.295061728395062,0)" xlink:href="#ay"/><use transform="matrix(0.03765432098765432,0,0,0.03765432098765432,36.82592592592593,0)" xlink:href="#ar"/><use transform="matrix(0.03765432098765432,0,0,0.03765432098765432,44.35679012345678,0)" xlink:href="#as"/></g><g id="s"><use transform="matrix(0.03765432098765432,0,0,0.03765432098765432,0,0)" xlink:href="#aA"/><use transform="matrix(0.03765432098765432,0,0,0.03765432098765432,4.7820987654320986,0)" xlink:href="#aF"/><use transform="matrix(0.03765432098765432,0,0,0.03765432098765432,12.312962962962963,0)" xlink:href="#aG"/><use transform="matrix(0.03765432098765432,0,0,0.03765432098765432,19.843827160493824,0)" xlink:href="#aF"/><use transform="matrix(0.03765432098765432,0,0,0.03765432098765432,27.374691358024695,0)" xlink:href="#aF"/><use transform="matrix(0.03765432098765432,0,0,0.03765432098765432,34.90555555555555,0)" xlink:href="#aA"/></g><g id="t"><use transform="matrix(0.03765432098765432,0,0,0.03765432098765432,0,0)" xlink:href="#au"/><use transform="matrix(0.03765432098765432,0,0,0.03765432098765432,4.480864197530864,0)" xlink:href="#ay"/><use transform="matrix(0.03765432098765432,0,0,0.03765432098765432,12.011728395061727,0)" xlink:href="#ax"/><use transform="matrix(0.03765432098765432,0,0,0.03765432098765432,19.54259259259259,0)" xlink:href="#av"/><use transform="matrix(0.03765432098765432,0,0,0.03765432098765432,27.073456790123455,0)" xlink:href="#ax"/><use transform="matrix(0.03765432098765432,0,0,0.03765432098765432,34.60432098765432,0)" xlink:href="#ao"/><use transform="matrix(0.03765432098765432,0,0,0.03765432098765432,39.08518518518518,0)" xlink:href="#ar"/><use transform="matrix(0.03765432098765432,0,0,0.03765432098765432,46.61604938271604,0)" xlink:href="#as"/></g><path d="M240 0l2-218c-23 76-54 145-80 218h-23L58-218 59 0H30v-248h44l77 211c21-75 51-140 76-211h43V0h-30" id="aM"/><g id="u"><use transform="matrix(0.03765432098765432,0,0,0.03765432098765432,0,0)" xlink:href="#aA"/><use transform="matrix(0.03765432098765432,0,0,0.03765432098765432,4.7820987654320986,0)" xlink:href="#aM"/><use transform="matrix(0.03765432098765432,0,0,0.03765432098765432,16.04074074074074,0)" xlink:href="#aA"/></g><g id="v"><use transform="matrix(0.03765432098765432,0,0,0.03765432098765432,0,0)" xlink:href="#au"/><use transform="matrix(0.03765432098765432,0,0,0.03765432098765432,4.480864197530864,0)" xlink:href="#ao"/><use transform="matrix(0.03765432098765432,0,0,0.03765432098765432,8.961728395061728,0)" xlink:href="#an"/><use transform="matrix(0.03765432098765432,0,0,0.03765432098765432,16.492592592592594,0)" xlink:href="#aD"/><use transform="matrix(0.03765432098765432,0,0,0.03765432098765432,23.270370370370372,0)" xlink:href="#an"/><use transform="matrix(0.03765432098765432,0,0,0.03765432098765432,30.801234567901236,0)" xlink:href="#as"/></g><path d="M160-131c35 5 61 23 61 61C221 17 115-2 30 0v-248c76 3 177-17 177 60 0 33-19 50-47 57zm-97-11c50-1 110 9 110-42 0-47-63-36-110-37v79zm0 115c55-2 124 14 124-45 0-56-70-42-124-44v89" id="aN"/><g id="w"><use transform="matrix(0.03765432098765432,0,0,0.03765432098765432,0,0)" xlink:href="#aA"/><use transform="matrix(0.03765432098765432,0,0,0.03765432098765432,4.7820987654320986,0)" xlink:href="#aN"/><use transform="matrix(0.03765432098765432,0,0,0.03765432098765432,13.819135802469134,0)" xlink:href="#ao"/><use transform="matrix(0.03765432098765432,0,0,0.03765432098765432,18.299999999999997,0)" xlink:href="#an"/><use transform="matrix(0.03765432098765432,0,0,0.03765432098765432,25.83086419753086,0)" xlink:href="#av"/><use transform="matrix(0.03765432098765432,0,0,0.03765432098765432,33.361728395061725,0)" xlink:href="#aD"/><use transform="matrix(0.03765432098765432,0,0,0.03765432098765432,40.1395061728395,0)" xlink:href="#an"/><use transform="matrix(0.03765432098765432,0,0,0.03765432098765432,47.670370370370364,0)" xlink:href="#aA"/></g><path d="M84 4C-5 8 30-112 23-190h32v120c0 31 7 50 39 49 72-2 45-101 50-169h31l1 190h-30c-1-10 1-25-2-33-11 22-28 36-60 37" id="aO"/><path d="M24 0v-261h32V0H24" id="aP"/><g id="x"><use transform="matrix(0.03765432098765432,0,0,0.03765432098765432,0,0)" xlink:href="#au"/><use transform="matrix(0.03765432098765432,0,0,0.03765432098765432,4.480864197530864,0)" xlink:href="#ay"/><use transform="matrix(0.03765432098765432,0,0,0.03765432098765432,12.011728395061727,0)" xlink:href="#ao"/><use transform="matrix(0.03765432098765432,0,0,0.03765432098765432,16.49259259259259,0)" xlink:href="#an"/><use transform="matrix(0.03765432098765432,0,0,0.03765432098765432,24.023456790123454,0)" xlink:href="#aO"/><use transform="matrix(0.03765432098765432,0,0,0.03765432098765432,31.554320987654318,0)" xlink:href="#am"/><use transform="matrix(0.03765432098765432,0,0,0.03765432098765432,39.08518518518518,0)" xlink:href="#ax"/><use transform="matrix(0.03765432098765432,0,0,0.03765432098765432,46.61604938271604,0)" xlink:href="#aj"/><use transform="matrix(0.03765432098765432,0,0,0.03765432098765432,53.39382716049382,0)" xlink:href="#aD"/><use transform="matrix(0.03765432098765432,0,0,0.03765432098765432,60.1716049382716,0)" xlink:href="#ar"/><use transform="matrix(0.03765432098765432,0,0,0.03765432098765432,67.70246913580246,0)" xlink:href="#aP"/><use transform="matrix(0.03765432098765432,0,0,0.03765432098765432,70.67716049382715,0)" xlink:href="#an"/><use transform="matrix(0.03765432098765432,0,0,0.03765432098765432,78.208024691358,0)" xlink:href="#ao"/></g><g id="y"><use transform="matrix(0.03765432098765432,0,0,0.03765432098765432,0,0)" xlink:href="#aA"/><use transform="matrix(0.03765432098765432,0,0,0.03765432098765432,4.7820987654320986,0)" xlink:href="#aC"/><use transform="matrix(0.03765432098765432,0,0,0.03765432098765432,14.534567901234567,0)" xlink:href="#ar"/><use transform="matrix(0.03765432098765432,0,0,0.03765432098765432,22.06543209876543,0)" xlink:href="#aO"/><use transform="matrix(0.03765432098765432,0,0,0.03765432098765432,29.596296296296295,0)" xlink:href="#ap"/><use transform="matrix(0.03765432098765432,0,0,0.03765432098765432,33.361728395061725,0)" xlink:href="#ar"/><use transform="matrix(0.03765432098765432,0,0,0.03765432098765432,40.892592592592585,0)" xlink:href="#ao"/><use transform="matrix(0.03765432098765432,0,0,0.03765432098765432,45.373456790123456,0)" xlink:href="#an"/><use transform="matrix(0.03765432098765432,0,0,0.03765432098765432,52.904320987654316,0)" xlink:href="#ak"/><use transform="matrix(0.03765432098765432,0,0,0.03765432098765432,60.435185185185176,0)" xlink:href="#ar"/><use transform="matrix(0.03765432098765432,0,0,0.03765432098765432,67.96604938271604,0)" xlink:href="#aA"/></g><path d="M101-234c-31-9-42 10-38 44h38v23H63V0H32v-167H5v-23h27c-7-52 17-82 69-68v24" id="aQ"/><g id="z"><use transform="matrix(0.03765432098765432,0,0,0.03765432098765432,0,0)" xlink:href="#au"/><use transform="matrix(0.03765432098765432,0,0,0.03765432098765432,4.480864197530864,0)" xlink:href="#aQ"/><use transform="matrix(0.03765432098765432,0,0,0.03765432098765432,8.246296296296297,0)" xlink:href="#ar"/><use transform="matrix(0.03765432098765432,0,0,0.03765432098765432,15.77716049382716,0)" xlink:href="#ap"/><use transform="matrix(0.03765432098765432,0,0,0.03765432098765432,19.54259259259259,0)" xlink:href="#ar"/></g><use transform="matrix(0.03765432098765432,0,0,0.03765432098765432,0,0)" xlink:href="#az" id="A"/><path d="M0 4l72-265h28L28 4H0" id="aR"/><path d="M9 0v-24l116-142H16v-24h144v24L44-24h123V0H9" id="aS"/><path d="M33 0v-38h34V0H33" id="aT"/><g id="B"><use transform="matrix(0.03765432098765432,0,0,0.03765432098765432,0,0)" xlink:href="#aA"/><use transform="matrix(0.03765432098765432,0,0,0.03765432098765432,4.7820987654320986,0)" xlink:href="#ao"/><use transform="matrix(0.03765432098765432,0,0,0.03765432098765432,9.262962962962963,0)" xlink:href="#ax"/><use transform="matrix(0.03765432098765432,0,0,0.03765432098765432,16.793827160493827,0)" xlink:href="#aj"/><use transform="matrix(0.03765432098765432,0,0,0.03765432098765432,23.57160493827161,0)" xlink:href="#aR"/><use transform="matrix(0.03765432098765432,0,0,0.03765432098765432,27.337037037037035,0)" xlink:href="#an"/><use transform="matrix(0.03765432098765432,0,0,0.03765432098765432,34.867901234567896,0)" xlink:href="#ak"/><use transform="matrix(0.03765432098765432,0,0,0.03765432098765432,42.398765432098756,0)" xlink:href="#ao"/><use transform="matrix(0.03765432098765432,0,0,0.03765432098765432,46.87962962962962,0)" xlink:href="#aq"/><use transform="matrix(0.03765432098765432,0,0,0.03765432098765432,49.854320987654305,0)" xlink:href="#an"/><use transform="matrix(0.03765432098765432,0,0,0.03765432098765432,57.38518518518518,0)" xlink:href="#av"/><use transform="matrix(0.03765432098765432,0,0,0.03765432098765432,64.91604938271604,0)" xlink:href="#an"/><use transform="matrix(0.03765432098765432,0,0,0.03765432098765432,72.4469135802469,0)" xlink:href="#am"/><use transform="matrix(0.03765432098765432,0,0,0.03765432098765432,79.97777777777776,0)" xlink:href="#aS"/><use transform="matrix(0.03765432098765432,0,0,0.03765432098765432,86.75555555555553,0)" xlink:href="#aq"/><use transform="matrix(0.03765432098765432,0,0,0.03765432098765432,89.73024691358022,0)" xlink:href="#av"/><use transform="matrix(0.03765432098765432,0,0,0.03765432098765432,97.26111111111109,0)" xlink:href="#aL"/><use transform="matrix(0.03765432098765432,0,0,0.03765432098765432,104.03888888888885,0)" xlink:href="#aT"/><use transform="matrix(0.03765432098765432,0,0,0.03765432098765432,107.80432098765428,0)" xlink:href="#ai"/><use transform="matrix(0.03765432098765432,0,0,0.03765432098765432,115.33518518518514,0)" xlink:href="#av"/><use transform="matrix(0.03765432098765432,0,0,0.03765432098765432,122.866049382716,0)" xlink:href="#ay"/><use transform="matrix(0.03765432098765432,0,0,0.03765432098765432,130.39691358024686,0)" xlink:href="#aA"/></g><path d="M101-251c82-7 93 87 43 132L82-64C71-53 59-42 53-27h129V0H18c2-99 128-94 128-182 0-28-16-43-45-43s-46 15-49 41l-32-3c6-41 34-60 81-64" id="aU"/><g id="C"><use transform="matrix(0.03765432098765432,0,0,0.03765432098765432,0,0)" xlink:href="#aD"/><use transform="matrix(0.03765432098765432,0,0,0.03765432098765432,6.777777777777777,0)" xlink:href="#an"/><use transform="matrix(0.03765432098765432,0,0,0.03765432098765432,14.30864197530864,0)" xlink:href="#ak"/><use transform="matrix(0.03765432098765432,0,0,0.03765432098765432,21.83950617283951,0)" xlink:href="#aq"/><use transform="matrix(0.03765432098765432,0,0,0.03765432098765432,24.8141975308642,0)" xlink:href="#ak"/><use transform="matrix(0.03765432098765432,0,0,0.03765432098765432,32.345061728395066,0)" xlink:href="#an"/><use transform="matrix(0.03765432098765432,0,0,0.03765432098765432,39.875925925925934,0)" xlink:href="#ap"/><use transform="matrix(0.03765432098765432,0,0,0.03765432098765432,43.64135802469136,0)" xlink:href="#ar"/><use transform="matrix(0.03765432098765432,0,0,0.03765432098765432,51.17222222222222,0)" xlink:href="#aU"/></g><g id="D"><use transform="matrix(0.03765432098765432,0,0,0.03765432098765432,0,0)" xlink:href="#aA"/><use transform="matrix(0.03765432098765432,0,0,0.03765432098765432,4.7820987654320986,0)" xlink:href="#aB"/><use transform="matrix(0.03765432098765432,0,0,0.03765432098765432,13.819135802469134,0)" xlink:href="#an"/><use transform="matrix(0.03765432098765432,0,0,0.03765432098765432,21.349999999999998,0)" xlink:href="#ao"/><use transform="matrix(0.03765432098765432,0,0,0.03765432098765432,25.83086419753086,0)" xlink:href="#ay"/><use transform="matrix(0.03765432098765432,0,0,0.03765432098765432,33.361728395061725,0)" xlink:href="#ax"/><use transform="matrix(0.03765432098765432,0,0,0.03765432098765432,40.892592592592585,0)" xlink:href="#av"/><use transform="matrix(0.03765432098765432,0,0,0.03765432098765432,48.42345679012345,0)" xlink:href="#ap"/><use transform="matrix(0.03765432098765432,0,0,0.03765432098765432,52.18888888888888,0)" xlink:href="#ar"/></g><path d="M140-251c81 0 123 46 123 126C263-46 219 4 140 4 59 4 17-45 17-125s42-126 123-126zm0 227c63 0 89-41 89-101s-29-99-89-99c-61 0-89 39-89 99S79-25 140-24" id="aV"/><path d="M108 0H70L1-190h34L89-25l56-165h34" id="aW"/><path d="M106-169C34-169 62-67 57 0H25v-261h32l-1 103c12-21 28-36 61-36 89 0 53 116 60 194h-32v-121c2-32-8-49-39-48" id="aX"/><g id="E"><use transform="matrix(0.03765432098765432,0,0,0.03765432098765432,0,0)" xlink:href="#aV"/><use transform="matrix(0.03765432098765432,0,0,0.03765432098765432,10.543209876543209,0)" xlink:href="#aP"/><use transform="matrix(0.03765432098765432,0,0,0.03765432098765432,13.5179012345679,0)" xlink:href="#aq"/><use transform="matrix(0.03765432098765432,0,0,0.03765432098765432,16.49259259259259,0)" xlink:href="#aW"/><use transform="matrix(0.03765432098765432,0,0,0.03765432098765432,23.270370370370365,0)" xlink:href="#ax"/><use transform="matrix(0.03765432098765432,0,0,0.03765432098765432,30.80123456790123,0)" xlink:href="#aq"/><use transform="matrix(0.03765432098765432,0,0,0.03765432098765432,33.77592592592592,0)" xlink:href="#ao"/><use transform="matrix(0.03765432098765432,0,0,0.03765432098765432,38.25679012345678,0)" xlink:href="#aq"/><use transform="matrix(0.03765432098765432,0,0,0.03765432098765432,41.23148148148148,0)" xlink:href="#av"/><use transform="matrix(0.03765432098765432,0,0,0.03765432098765432,48.76234567901234,0)" xlink:href="#aX"/><use transform="matrix(0.03765432098765432,0,0,0.03765432098765432,56.2932098765432,0)" xlink:href="#an"/><use transform="matrix(0.03765432098765432,0,0,0.03765432098765432,63.82407407407406,0)" xlink:href="#aA"/></g><path d="M126-127c33 6 58 20 58 59 0 88-139 92-164 29-3-8-5-16-6-25l32-3c6 27 21 44 54 44 32 0 52-15 52-46 0-38-36-46-79-43v-28c39 1 72-4 72-42 0-27-17-43-46-43-28 0-47 15-49 41l-32-3c6-42 35-63 81-64 48-1 79 21 79 65 0 36-21 52-52 59" id="aY"/><path d="M134-131c28 9 52 24 51 62-1 50-34 73-85 73S17-19 16-69c0-36 21-54 49-61-75-25-45-126 34-121 46 3 78 18 79 63 0 33-17 51-44 57zm-34-11c31 1 46-15 46-44 0-28-17-43-47-42-29 0-46 13-45 42 1 28 16 44 46 44zm1 122c35 0 51-18 51-52 0-30-18-46-53-46-33 0-51 17-51 47 0 34 19 51 53 51" id="aZ"/><g id="F"><use transform="matrix(0.03765432098765432,0,0,0.03765432098765432,0,0)" xlink:href="#aA"/><use transform="matrix(0.03765432098765432,0,0,0.03765432098765432,4.7820987654320986,0)" xlink:href="#aF"/><use transform="matrix(0.03765432098765432,0,0,0.03765432098765432,12.312962962962963,0)" xlink:href="#aG"/><use transform="matrix(0.03765432098765432,0,0,0.03765432098765432,19.843827160493824,0)" xlink:href="#aY"/><use transform="matrix(0.03765432098765432,0,0,0.03765432098765432,27.374691358024695,0)" xlink:href="#aZ"/><use transform="matrix(0.03765432098765432,0,0,0.03765432098765432,34.90555555555555,0)" xlink:href="#aA"/></g><path d="M197 0v-115H63V0H30v-248h33v105h134v-105h34V0h-34" id="ba"/><g id="G"><use transform="matrix(0.03765432098765432,0,0,0.03765432098765432,0,0)" xlink:href="#aA"/><use transform="matrix(0.03765432098765432,0,0,0.03765432098765432,4.7820987654320986,0)" xlink:href="#ba"/><use transform="matrix(0.03765432098765432,0,0,0.03765432098765432,14.534567901234567,0)" xlink:href="#aA"/></g><g id="H"><use transform="matrix(0.03765432098765432,0,0,0.03765432098765432,0,0)" xlink:href="#aA"/><use transform="matrix(0.03765432098765432,0,0,0.03765432098765432,4.7820987654320986,0)" xlink:href="#at"/><use transform="matrix(0.03765432098765432,0,0,0.03765432098765432,13.819135802469134,0)" xlink:href="#an"/><use transform="matrix(0.03765432098765432,0,0,0.03765432098765432,21.349999999999998,0)" xlink:href="#ao"/><use transform="matrix(0.03765432098765432,0,0,0.03765432098765432,25.83086419753086,0)" xlink:href="#ak"/><use transform="matrix(0.03765432098765432,0,0,0.03765432098765432,33.361728395061725,0)" xlink:href="#an"/><use transform="matrix(0.03765432098765432,0,0,0.03765432098765432,40.892592592592585,0)" xlink:href="#aA"/></g><path d="M30 0v-248h187v28H63v79h144v27H63v87h162V0H30" id="bb"/><g id="I"><use transform="matrix(0.03765432098765432,0,0,0.03765432098765432,0,0)" xlink:href="#aA"/><use transform="matrix(0.03765432098765432,0,0,0.03765432098765432,4.7820987654320986,0)" xlink:href="#bb"/><use transform="matrix(0.03765432098765432,0,0,0.03765432098765432,13.819135802469134,0)" xlink:href="#av"/><use transform="matrix(0.03765432098765432,0,0,0.03765432098765432,21.349999999999998,0)" xlink:href="#aj"/><use transform="matrix(0.03765432098765432,0,0,0.03765432098765432,28.12777777777777,0)" xlink:href="#aq"/><use transform="matrix(0.03765432098765432,0,0,0.03765432098765432,31.102469135802465,0)" xlink:href="#av"/><use transform="matrix(0.03765432098765432,0,0,0.03765432098765432,38.63333333333333,0)" xlink:href="#ar"/></g><path d="M100-194c63 0 86 42 84 106H49c0 40 14 67 53 68 26 1 43-12 49-29l28 8c-11 28-37 45-77 45C44 4 14-33 15-96c1-61 26-98 85-98zm52 81c6-60-76-77-97-28-3 7-6 17-6 28h103zm-74-98c8-23 27-35 38-54h36v5l-58 49H78" id="bc"/><g id="J"><use transform="matrix(0.03765432098765432,0,0,0.03765432098765432,0,0)" xlink:href="#aM"/><use transform="matrix(0.03765432098765432,0,0,0.03765432098765432,11.258641975308642,0)" xlink:href="#bc"/><use transform="matrix(0.03765432098765432,0,0,0.03765432098765432,18.789506172839506,0)" xlink:href="#ak"/><use transform="matrix(0.03765432098765432,0,0,0.03765432098765432,26.32037037037037,0)" xlink:href="#aq"/><use transform="matrix(0.03765432098765432,0,0,0.03765432098765432,29.295061728395062,0)" xlink:href="#ar"/></g><g id="K"><use transform="matrix(0.03765432098765432,0,0,0.03765432098765432,0,0)" xlink:href="#aI"/><use transform="matrix(0.03765432098765432,0,0,0.03765432098765432,9.752469135802468,0)" xlink:href="#ar"/><use transform="matrix(0.03765432098765432,0,0,0.03765432098765432,17.28333333333333,0)" xlink:href="#aw"/><use transform="matrix(0.03765432098765432,0,0,0.03765432098765432,28.541975308641973,0)" xlink:href="#ai"/><use transform="matrix(0.03765432098765432,0,0,0.03765432098765432,36.07283950617284,0)" xlink:href="#aP"/><use transform="matrix(0.03765432098765432,0,0,0.03765432098765432,39.04753086419753,0)" xlink:href="#ax"/><use transform="matrix(0.03765432098765432,0,0,0.03765432098765432,46.5783950617284,0)" xlink:href="#ap"/><use transform="matrix(0.03765432098765432,0,0,0.03765432098765432,50.34382716049383,0)" xlink:href="#ar"/><use transform="matrix(0.03765432098765432,0,0,0.03765432098765432,57.87469135802469,0)" xlink:href="#aA"/></g><g id="L"><use transform="matrix(0.03765432098765432,0,0,0.03765432098765432,0,0)" xlink:href="#aA"/><use transform="matrix(0.03765432098765432,0,0,0.03765432098765432,4.7820987654320986,0)" xlink:href="#ao"/><use transform="matrix(0.03765432098765432,0,0,0.03765432098765432,9.262962962962963,0)" xlink:href="#ax"/><use transform="matrix(0.03765432098765432,0,0,0.03765432098765432,16.793827160493827,0)" xlink:href="#aj"/><use transform="matrix(0.03765432098765432,0,0,0.03765432098765432,23.57160493827161,0)" xlink:href="#aR"/><use transform="matrix(0.03765432098765432,0,0,0.03765432098765432,27.337037037037035,0)" xlink:href="#aj"/><use transform="matrix(0.03765432098765432,0,0,0.03765432098765432,34.114814814814814,0)" xlink:href="#an"/><use transform="matrix(0.03765432098765432,0,0,0.03765432098765432,41.64567901234568,0)" xlink:href="#ao"/><use transform="matrix(0.03765432098765432,0,0,0.03765432098765432,46.126543209876544,0)" xlink:href="#ay"/><use transform="matrix(0.03765432098765432,0,0,0.03765432098765432,53.657407407407405,0)" xlink:href="#ax"/><use transform="matrix(0.03765432098765432,0,0,0.03765432098765432,61.188271604938265,0)" xlink:href="#av"/><use transform="matrix(0.03765432098765432,0,0,0.03765432098765432,68.71913580246913,0)" xlink:href="#ap"/><use transform="matrix(0.03765432098765432,0,0,0.03765432098765432,72.48456790123456,0)" xlink:href="#ar"/><use transform="matrix(0.03765432098765432,0,0,0.03765432098765432,80.0154320987654,0)" xlink:href="#am"/><use transform="matrix(0.03765432098765432,0,0,0.03765432098765432,87.54629629629628,0)" xlink:href="#ar"/><use transform="matrix(0.03765432098765432,0,0,0.03765432098765432,95.07716049382714,0)" xlink:href="#aP"/><use transform="matrix(0.03765432098765432,0,0,0.03765432098765432,98.05185185185182,0)" xlink:href="#aq"/><use transform="matrix(0.03765432098765432,0,0,0.03765432098765432,101.0265432098765,0)" xlink:href="#aW"/><use transform="matrix(0.03765432098765432,0,0,0.03765432098765432,107.80432098765428,0)" xlink:href="#ax"/><use transform="matrix(0.03765432098765432,0,0,0.03765432098765432,115.33518518518514,0)" xlink:href="#aq"/><use transform="matrix(0.03765432098765432,0,0,0.03765432098765432,118.30987654320982,0)" xlink:href="#ao"/><use transform="matrix(0.03765432098765432,0,0,0.03765432098765432,122.7907407407407,0)" xlink:href="#an"/><use transform="matrix(0.03765432098765432,0,0,0.03765432098765432,130.32160493827155,0)" xlink:href="#aT"/><use transform="matrix(0.03765432098765432,0,0,0.03765432098765432,134.087037037037,0)" xlink:href="#ai"/><use transform="matrix(0.03765432098765432,0,0,0.03765432098765432,141.61790123456785,0)" xlink:href="#av"/><use transform="matrix(0.03765432098765432,0,0,0.03765432098765432,149.1487654320987,0)" xlink:href="#ay"/><use transform="matrix(0.03765432098765432,0,0,0.03765432098765432,156.67962962962957,0)" xlink:href="#aA"/></g><g id="M"><use transform="matrix(0.03765432098765432,0,0,0.03765432098765432,0,0)" xlink:href="#aD"/><use transform="matrix(0.03765432098765432,0,0,0.03765432098765432,6.777777777777777,0)" xlink:href="#an"/><use transform="matrix(0.03765432098765432,0,0,0.03765432098765432,14.30864197530864,0)" xlink:href="#ak"/><use transform="matrix(0.03765432098765432,0,0,0.03765432098765432,21.83950617283951,0)" xlink:href="#aq"/><use transform="matrix(0.03765432098765432,0,0,0.03765432098765432,24.8141975308642,0)" xlink:href="#ak"/><use transform="matrix(0.03765432098765432,0,0,0.03765432098765432,32.345061728395066,0)" xlink:href="#an"/><use transform="matrix(0.03765432098765432,0,0,0.03765432098765432,39.875925925925934,0)" xlink:href="#ap"/><use transform="matrix(0.03765432098765432,0,0,0.03765432098765432,43.64135802469136,0)" xlink:href="#ar"/><use transform="matrix(0.03765432098765432,0,0,0.03765432098765432,51.17222222222222,0)" xlink:href="#aY"/></g><g id="N"><use transform="matrix(0.03765432098765432,0,0,0.03765432098765432,0,0)" xlink:href="#aA"/><use transform="matrix(0.03765432098765432,0,0,0.03765432098765432,4.7820987654320986,0)" xlink:href="#aB"/><use transform="matrix(0.03765432098765432,0,0,0.03765432098765432,13.819135802469134,0)" xlink:href="#an"/><use transform="matrix(0.03765432098765432,0,0,0.03765432098765432,21.349999999999998,0)" xlink:href="#av"/><use transform="matrix(0.03765432098765432,0,0,0.03765432098765432,28.88086419753086,0)" xlink:href="#ak"/><use transform="matrix(0.03765432098765432,0,0,0.03765432098765432,36.41172839506173,0)" xlink:href="#ao"/><use transform="matrix(0.03765432098765432,0,0,0.03765432098765432,40.892592592592585,0)" xlink:href="#ar"/></g><g id="O"><use transform="matrix(0.03765432098765432,0,0,0.03765432098765432,0,0)" xlink:href="#aN"/><use transform="matrix(0.03765432098765432,0,0,0.03765432098765432,9.037037037037036,0)" xlink:href="#aO"/><use transform="matrix(0.03765432098765432,0,0,0.03765432098765432,16.5679012345679,0)" xlink:href="#aj"/><use transform="matrix(0.03765432098765432,0,0,0.03765432098765432,23.345679012345677,0)" xlink:href="#aj"/><use transform="matrix(0.03765432098765432,0,0,0.03765432098765432,30.123456790123456,0)" xlink:href="#ar"/><use transform="matrix(0.03765432098765432,0,0,0.03765432098765432,37.654320987654316,0)" xlink:href="#aP"/><use transform="matrix(0.03765432098765432,0,0,0.03765432098765432,40.62901234567901,0)" xlink:href="#an"/><use transform="matrix(0.03765432098765432,0,0,0.03765432098765432,48.15987654320987,0)" xlink:href="#aA"/></g><g id="P"><use transform="matrix(0.03765432098765432,0,0,0.03765432098765432,0,0)" xlink:href="#aA"/><use transform="matrix(0.03765432098765432,0,0,0.03765432098765432,4.7820987654320986,0)" xlink:href="#aF"/><use transform="matrix(0.03765432098765432,0,0,0.03765432098765432,12.312962962962963,0)" xlink:href="#aG"/><use transform="matrix(0.03765432098765432,0,0,0.03765432098765432,19.843827160493824,0)" xlink:href="#aU"/><use transform="matrix(0.03765432098765432,0,0,0.03765432098765432,27.374691358024695,0)" xlink:href="#aY"/><use transform="matrix(0.03765432098765432,0,0,0.03765432098765432,34.90555555555555,0)" xlink:href="#aA"/></g><g id="Q"><use transform="matrix(0.03765432098765432,0,0,0.03765432098765432,0,0)" xlink:href="#aA"/><use transform="matrix(0.03765432098765432,0,0,0.03765432098765432,4.7820987654320986,0)" xlink:href="#aB"/><use transform="matrix(0.03765432098765432,0,0,0.03765432098765432,13.819135802469134,0)" xlink:href="#aO"/><use transform="matrix(0.03765432098765432,0,0,0.03765432098765432,21.349999999999998,0)" xlink:href="#ai"/><use transform="matrix(0.03765432098765432,0,0,0.03765432098765432,28.88086419753086,0)" xlink:href="#ax"/><use transform="matrix(0.03765432098765432,0,0,0.03765432098765432,36.41172839506173,0)" xlink:href="#ao"/><use transform="matrix(0.03765432098765432,0,0,0.03765432098765432,40.892592592592585,0)" xlink:href="#aq"/><use transform="matrix(0.03765432098765432,0,0,0.03765432098765432,43.867283950617285,0)" xlink:href="#ar"/><use transform="matrix(0.03765432098765432,0,0,0.03765432098765432,51.39814814814815,0)" xlink:href="#ao"/></g><g id="R"><use transform="matrix(0.03765432098765432,0,0,0.03765432098765432,0,0)" xlink:href="#aA"/><use transform="matrix(0.03765432098765432,0,0,0.03765432098765432,4.7820987654320986,0)" xlink:href="#ao"/><use transform="matrix(0.03765432098765432,0,0,0.03765432098765432,9.262962962962963,0)" xlink:href="#ax"/><use transform="matrix(0.03765432098765432,0,0,0.03765432098765432,16.793827160493827,0)" xlink:href="#aj"/><use transform="matrix(0.03765432098765432,0,0,0.03765432098765432,23.57160493827161,0)" xlink:href="#aR"/><use transform="matrix(0.03765432098765432,0,0,0.03765432098765432,27.337037037037035,0)" xlink:href="#aj"/><use transform="matrix(0.03765432098765432,0,0,0.03765432098765432,34.114814814814814,0)" xlink:href="#an"/><use transform="matrix(0.03765432098765432,0,0,0.03765432098765432,41.64567901234568,0)" xlink:href="#av"/><use transform="matrix(0.03765432098765432,0,0,0.03765432098765432,49.17654320987654,0)" xlink:href="#ak"/><use transform="matrix(0.03765432098765432,0,0,0.03765432098765432,56.7074074074074,0)" xlink:href="#ao"/><use transform="matrix(0.03765432098765432,0,0,0.03765432098765432,61.188271604938265,0)" xlink:href="#ar"/><use transform="matrix(0.03765432098765432,0,0,0.03765432098765432,68.71913580246913,0)" xlink:href="#am"/><use transform="matrix(0.03765432098765432,0,0,0.03765432098765432,76.24999999999999,0)" xlink:href="#al"/><use transform="matrix(0.03765432098765432,0,0,0.03765432098765432,83.78086419753085,0)" xlink:href="#aO"/><use transform="matrix(0.03765432098765432,0,0,0.03765432098765432,91.3117283950617,0)" xlink:href="#aj"/><use transform="matrix(0.03765432098765432,0,0,0.03765432098765432,98.08950617283948,0)" xlink:href="#aj"/><use transform="matrix(0.03765432098765432,0,0,0.03765432098765432,104.86728395061726,0)" xlink:href="#ar"/><use transform="matrix(0.03765432098765432,0,0,0.03765432098765432,112.39814814814811,0)" xlink:href="#aP"/><use transform="matrix(0.03765432098765432,0,0,0.03765432098765432,115.3728395061728,0)" xlink:href="#an"/><use transform="matrix(0.03765432098765432,0,0,0.03765432098765432,122.90370370370366,0)" xlink:href="#aT"/><use transform="matrix(0.03765432098765432,0,0,0.03765432098765432,126.66913580246909,0)" xlink:href="#ai"/><use transform="matrix(0.03765432098765432,0,0,0.03765432098765432,134.19999999999996,0)" xlink:href="#av"/><use transform="matrix(0.03765432098765432,0,0,0.03765432098765432,141.73086419753082,0)" xlink:href="#ay"/><use transform="matrix(0.03765432098765432,0,0,0.03765432098765432,149.26172839506168,0)" xlink:href="#aA"/></g><g id="S"><use transform="matrix(0.03765432098765432,0,0,0.03765432098765432,0,0)" xlink:href="#ak"/><use transform="matrix(0.03765432098765432,0,0,0.03765432098765432,7.530864197530864,0)" xlink:href="#ax"/><use transform="matrix(0.03765432098765432,0,0,0.03765432098765432,15.061728395061728,0)" xlink:href="#ai"/><use transform="matrix(0.03765432098765432,0,0,0.03765432098765432,22.59259259259259,0)" xlink:href="#aO"/><use transform="matrix(0.03765432098765432,0,0,0.03765432098765432,30.123456790123456,0)" xlink:href="#ap"/><use transform="matrix(0.03765432098765432,0,0,0.03765432098765432,33.888888888888886,0)" xlink:href="#an"/><use transform="matrix(0.03765432098765432,0,0,0.03765432098765432,41.419753086419746,0)" xlink:href="#ak"/><use transform="matrix(0.03765432098765432,0,0,0.03765432098765432,48.950617283950606,0)" xlink:href="#ar"/><use transform="matrix(0.03765432098765432,0,0,0.03765432098765432,56.48148148148147,0)" xlink:href="#am"/><use transform="matrix(0.03765432098765432,0,0,0.03765432098765432,64.01234567901233,0)" xlink:href="#aQ"/><use transform="matrix(0.03765432098765432,0,0,0.03765432098765432,67.77777777777776,0)" xlink:href="#ax"/><use transform="matrix(0.03765432098765432,0,0,0.03765432098765432,75.30864197530862,0)" xlink:href="#ak"/><use transform="matrix(0.03765432098765432,0,0,0.03765432098765432,82.83950617283948,0)" xlink:href="#ax"/><use transform="matrix(0.03765432098765432,0,0,0.03765432098765432,90.37037037037034,0)" xlink:href="#ao"/><use transform="matrix(0.03765432098765432,0,0,0.03765432098765432,94.85123456790122,0)" xlink:href="#an"/><use transform="matrix(0.03765432098765432,0,0,0.03765432098765432,102.38209876543206,0)" xlink:href="#aP"/></g><g id="T"><use transform="matrix(0.03765432098765432,0,0,0.03765432098765432,0,0)" xlink:href="#aI"/><use transform="matrix(0.03765432098765432,0,0,0.03765432098765432,9.752469135802468,0)" xlink:href="#an"/><use transform="matrix(0.03765432098765432,0,0,0.03765432098765432,17.28333333333333,0)" xlink:href="#ao"/><use transform="matrix(0.03765432098765432,0,0,0.03765432098765432,21.764197530864195,0)" xlink:href="#ay"/><use transform="matrix(0.03765432098765432,0,0,0.03765432098765432,29.29506172839506,0)" xlink:href="#ar"/></g><g id="U"><use transform="matrix(0.03765432098765432,0,0,0.03765432098765432,0,0)" xlink:href="#aA"/><use transform="matrix(0.03765432098765432,0,0,0.03765432098765432,4.7820987654320986,0)" xlink:href="#aC"/><use transform="matrix(0.03765432098765432,0,0,0.03765432098765432,14.534567901234567,0)" xlink:href="#ax"/><use transform="matrix(0.03765432098765432,0,0,0.03765432098765432,22.06543209876543,0)" xlink:href="#ai"/><use transform="matrix(0.03765432098765432,0,0,0.03765432098765432,29.596296296296295,0)" xlink:href="#aO"/><use transform="matrix(0.03765432098765432,0,0,0.03765432098765432,37.12716049382716,0)" xlink:href="#ap"/><use transform="matrix(0.03765432098765432,0,0,0.03765432098765432,40.892592592592585,0)" xlink:href="#an"/><use transform="matrix(0.03765432098765432,0,0,0.03765432098765432,48.42345679012345,0)" xlink:href="#ak"/><use transform="matrix(0.03765432098765432,0,0,0.03765432098765432,55.95432098765431,0)" xlink:href="#ar"/></g><path d="M63-220v92h138v28H63V0H30v-248h175v28H63" id="bd"/><g id="V"><use transform="matrix(0.03765432098765432,0,0,0.03765432098765432,0,0)" xlink:href="#bd"/><use transform="matrix(0.03765432098765432,0,0,0.03765432098765432,8.246296296296295,0)" xlink:href="#ax"/><use transform="matrix(0.03765432098765432,0,0,0.03765432098765432,15.777160493827159,0)" xlink:href="#ak"/><use transform="matrix(0.03765432098765432,0,0,0.03765432098765432,23.30802469135802,0)" xlink:href="#ax"/><use transform="matrix(0.03765432098765432,0,0,0.03765432098765432,30.838888888888885,0)" xlink:href="#ao"/><use transform="matrix(0.03765432098765432,0,0,0.03765432098765432,35.31975308641975,0)" xlink:href="#an"/><use transform="matrix(0.03765432098765432,0,0,0.03765432098765432,42.85061728395061,0)" xlink:href="#aP"/><use transform="matrix(0.03765432098765432,0,0,0.03765432098765432,45.825308641975305,0)" xlink:href="#aA"/></g><path d="M101-251c68 0 85 55 85 127S166 4 100 4C33 4 14-52 14-124c0-73 17-127 87-127zm-1 229c47 0 54-49 54-102s-4-102-53-102c-51 0-55 48-55 102 0 53 5 102 54 102" id="be"/><g id="W"><use transform="matrix(0.03765432098765432,0,0,0.03765432098765432,0,0)" xlink:href="#aA"/><use transform="matrix(0.03765432098765432,0,0,0.03765432098765432,4.7820987654320986,0)" xlink:href="#be"/><use transform="matrix(0.03765432098765432,0,0,0.03765432098765432,12.312962962962963,0)" xlink:href="#be"/><use transform="matrix(0.03765432098765432,0,0,0.03765432098765432,19.843827160493824,0)" xlink:href="#aH"/><use transform="matrix(0.03765432098765432,0,0,0.03765432098765432,27.374691358024695,0)" xlink:href="#aA"/></g><g id="X"><use transform="matrix(0.03765432098765432,0,0,0.03765432098765432,0,0)" xlink:href="#aP"/><use transform="matrix(0.03765432098765432,0,0,0.03765432098765432,2.974691358024691,0)" xlink:href="#ar"/><use transform="matrix(0.03765432098765432,0,0,0.03765432098765432,10.505555555555555,0)" xlink:href="#aD"/><use transform="matrix(0.03765432098765432,0,0,0.03765432098765432,17.28333333333333,0)" xlink:href="#an"/><use transform="matrix(0.03765432098765432,0,0,0.03765432098765432,24.814197530864195,0)" xlink:href="#aP"/><use transform="matrix(0.03765432098765432,0,0,0.03765432098765432,27.788888888888888,0)" xlink:href="#aH"/><use transform="matrix(0.03765432098765432,0,0,0.03765432098765432,35.31975308641975,0)" xlink:href="#as"/></g><path d="M30 0v-248h33v221h125V0H30" id="bf"/><path d="M137 0h-34L2-248h35l83 218 83-218h36" id="bg"/><g id="Y"><use transform="matrix(0.03765432098765432,0,0,0.03765432098765432,0,0)" xlink:href="#bf"/><use transform="matrix(0.03765432098765432,0,0,0.03765432098765432,7.530864197530864,0)" xlink:href="#ar"/><use transform="matrix(0.03765432098765432,0,0,0.03765432098765432,15.061728395061728,0)" xlink:href="#aD"/><use transform="matrix(0.03765432098765432,0,0,0.03765432098765432,21.83950617283951,0)" xlink:href="#an"/><use transform="matrix(0.03765432098765432,0,0,0.03765432098765432,29.37037037037037,0)" xlink:href="#aP"/><use transform="matrix(0.03765432098765432,0,0,0.03765432098765432,32.34506172839506,0)" xlink:href="#aC"/><use transform="matrix(0.03765432098765432,0,0,0.03765432098765432,42.09753086419753,0)" xlink:href="#ax"/><use transform="matrix(0.03765432098765432,0,0,0.03765432098765432,49.62839506172838,0)" xlink:href="#bg"/><use transform="matrix(0.03765432098765432,0,0,0.03765432098765432,57.91234567901233,0)" xlink:href="#ar"/><use transform="matrix(0.03765432098765432,0,0,0.03765432098765432,65.4432098765432,0)" xlink:href="#ap"/><use transform="matrix(0.03765432098765432,0,0,0.03765432098765432,69.20864197530862,0)" xlink:href="#an"/><use transform="matrix(0.03765432098765432,0,0,0.03765432098765432,76.73950617283948,0)" xlink:href="#aD"/><use transform="matrix(0.03765432098765432,0,0,0.03765432098765432,83.51728395061726,0)" xlink:href="#an"/><use transform="matrix(0.03765432098765432,0,0,0.03765432098765432,91.04814814814813,0)" xlink:href="#ar"/></g><g id="Z"><use transform="matrix(0.03765432098765432,0,0,0.03765432098765432,0,0)" xlink:href="#au"/><use transform="matrix(0.03765432098765432,0,0,0.03765432098765432,4.480864197530864,0)" xlink:href="#aP"/><use transform="matrix(0.03765432098765432,0,0,0.03765432098765432,7.455555555555556,0)" xlink:href="#ar"/><use transform="matrix(0.03765432098765432,0,0,0.03765432098765432,14.986419753086421,0)" xlink:href="#aD"/><use transform="matrix(0.03765432098765432,0,0,0.03765432098765432,21.764197530864195,0)" xlink:href="#an"/><use transform="matrix(0.03765432098765432,0,0,0.03765432098765432,29.29506172839506,0)" xlink:href="#aP"/><use transform="matrix(0.03765432098765432,0,0,0.03765432098765432,32.26975308641975,0)" xlink:href="#am"/><use transform="matrix(0.03765432098765432,0,0,0.03765432098765432,39.800617283950615,0)" xlink:href="#aW"/><use transform="matrix(0.03765432098765432,0,0,0.03765432098765432,46.57839506172839,0)" xlink:href="#an"/><use transform="matrix(0.03765432098765432,0,0,0.03765432098765432,54.10925925925926,0)" xlink:href="#ap"/><use transform="matrix(0.03765432098765432,0,0,0.03765432098765432,57.87469135802469,0)" xlink:href="#an"/><use transform="matrix(0.03765432098765432,0,0,0.03765432098765432,65.40555555555555,0)" xlink:href="#aD"/><use transform="matrix(0.03765432098765432,0,0,0.03765432098765432,72.18333333333332,0)" xlink:href="#an"/><use transform="matrix(0.03765432098765432,0,0,0.03765432098765432,79.71419753086418,0)" xlink:href="#ar"/></g><path d="M233-177c-1 41-23 64-60 70L243 0h-38l-65-103H63V0H30v-248c88 3 205-21 203 71zM63-129c60-2 137 13 137-47 0-61-80-42-137-45v92" id="bh"/><g id="aa"><use transform="matrix(0.03765432098765432,0,0,0.03765432098765432,0,0)" xlink:href="#aA"/><use transform="matrix(0.03765432098765432,0,0,0.03765432098765432,4.7820987654320986,0)" xlink:href="#bh"/><use transform="matrix(0.03765432098765432,0,0,0.03765432098765432,14.534567901234567,0)" xlink:href="#aO"/><use transform="matrix(0.03765432098765432,0,0,0.03765432098765432,22.06543209876543,0)" xlink:href="#an"/></g><g id="ab"><use transform="matrix(0.03765432098765432,0,0,0.03765432098765432,0,0)" xlink:href="#aM"/><use transform="matrix(0.03765432098765432,0,0,0.03765432098765432,11.258641975308642,0)" xlink:href="#an"/><use transform="matrix(0.03765432098765432,0,0,0.03765432098765432,18.789506172839506,0)" xlink:href="#ao"/><use transform="matrix(0.03765432098765432,0,0,0.03765432098765432,23.27037037037037,0)" xlink:href="#aO"/><use transform="matrix(0.03765432098765432,0,0,0.03765432098765432,30.801234567901233,0)" xlink:href="#aq"/><use transform="matrix(0.03765432098765432,0,0,0.03765432098765432,33.775925925925925,0)" xlink:href="#aw"/></g><g id="ac"><use transform="matrix(0.03765432098765432,0,0,0.03765432098765432,0,0)" xlink:href="#aY"/><use transform="matrix(0.03765432098765432,0,0,0.03765432098765432,7.530864197530864,0)" xlink:href="#aU"/><use transform="matrix(0.03765432098765432,0,0,0.03765432098765432,15.061728395061728,0)" xlink:href="#aY"/><use transform="matrix(0.03765432098765432,0,0,0.03765432098765432,22.59259259259259,0)" xlink:href="#aA"/></g><g id="ad"><use transform="matrix(0.03765432098765432,0,0,0.03765432098765432,0,0)" xlink:href="#au"/><use transform="matrix(0.03765432098765432,0,0,0.03765432098765432,4.480864197530864,0)" xlink:href="#aw"/><use transform="matrix(0.03765432098765432,0,0,0.03765432098765432,15.739506172839505,0)" xlink:href="#aO"/><use transform="matrix(0.03765432098765432,0,0,0.03765432098765432,23.27037037037037,0)" xlink:href="#av"/><use transform="matrix(0.03765432098765432,0,0,0.03765432098765432,30.801234567901233,0)" xlink:href="#aq"/><use transform="matrix(0.03765432098765432,0,0,0.03765432098765432,33.775925925925925,0)" xlink:href="#aD"/><use transform="matrix(0.03765432098765432,0,0,0.03765432098765432,40.5537037037037,0)" xlink:href="#aq"/><use transform="matrix(0.03765432098765432,0,0,0.03765432098765432,43.528395061728396,0)" xlink:href="#ai"/><use transform="matrix(0.03765432098765432,0,0,0.03765432098765432,51.059259259259264,0)" xlink:href="#aq"/><use transform="matrix(0.03765432098765432,0,0,0.03765432098765432,54.033950617283956,0)" xlink:href="#ar"/><use transform="matrix(0.03765432098765432,0,0,0.03765432098765432,61.564814814814824,0)" xlink:href="#as"/></g><path d="M24-231v-30h32v30H24zM-9 49c24 4 33-6 33-30v-209h32V24c2 40-23 58-65 49V49" id="bi"/><g id="ae"><use transform="matrix(0.03765432098765432,0,0,0.03765432098765432,0,0)" xlink:href="#aA"/><use transform="matrix(0.03765432098765432,0,0,0.03765432098765432,4.7820987654320986,0)" xlink:href="#aJ"/><use transform="matrix(0.03765432098765432,0,0,0.03765432098765432,13.819135802469134,0)" xlink:href="#ao"/><use transform="matrix(0.03765432098765432,0,0,0.03765432098765432,18.299999999999997,0)" xlink:href="#an"/><use transform="matrix(0.03765432098765432,0,0,0.03765432098765432,25.83086419753086,0)" xlink:href="#aD"/><use transform="matrix(0.03765432098765432,0,0,0.03765432098765432,32.608641975308636,0)" xlink:href="#an"/><use transform="matrix(0.03765432098765432,0,0,0.03765432098765432,40.1395061728395,0)" xlink:href="#bi"/><use transform="matrix(0.03765432098765432,0,0,0.03765432098765432,43.114197530864196,0)" xlink:href="#aO"/><use transform="matrix(0.03765432098765432,0,0,0.03765432098765432,50.64506172839506,0)" xlink:href="#aA"/></g><path d="M145-31C134-9 116 4 85 4 32 4 16-35 15-94c0-59 17-99 70-100 32-1 48 14 60 33 0-11-1-24 2-32h30l-1 268h-32zM93-21c41 0 51-33 51-76s-8-73-50-73c-40 0-46 35-46 75s5 74 45 74" id="bj"/><g id="af"><use transform="matrix(0.03765432098765432,0,0,0.03765432098765432,0,0)" xlink:href="#au"/><use transform="matrix(0.03765432098765432,0,0,0.03765432098765432,4.480864197530864,0)" xlink:href="#bj"/><use transform="matrix(0.03765432098765432,0,0,0.03765432098765432,12.011728395061727,0)" xlink:href="#aO"/><use transform="matrix(0.03765432098765432,0,0,0.03765432098765432,19.54259259259259,0)" xlink:href="#an"/><use transform="matrix(0.03765432098765432,0,0,0.03765432098765432,27.073456790123455,0)" xlink:href="#av"/><use transform="matrix(0.03765432098765432,0,0,0.03765432098765432,34.60432098765432,0)" xlink:href="#ap"/><use transform="matrix(0.03765432098765432,0,0,0.03765432098765432,38.36975308641975,0)" xlink:href="#aq"/><use transform="matrix(0.03765432098765432,0,0,0.03765432098765432,41.34444444444444,0)" xlink:href="#ak"/><use transform="matrix(0.03765432098765432,0,0,0.03765432098765432,48.875308641975316,0)" xlink:href="#an"/><use transform="matrix(0.03765432098765432,0,0,0.03765432098765432,56.40617283950617,0)" xlink:href="#ak"/><use transform="matrix(0.03765432098765432,0,0,0.03765432098765432,63.93703703703703,0)" xlink:href="#ax"/><use transform="matrix(0.03765432098765432,0,0,0.03765432098765432,71.46790123456789,0)" xlink:href="#am"/><use transform="matrix(0.03765432098765432,0,0,0.03765432098765432,78.99876543209876,0)" xlink:href="#ak"/><use transform="matrix(0.03765432098765432,0,0,0.03765432098765432,86.52962962962961,0)" xlink:href="#ax"/><use transform="matrix(0.03765432098765432,0,0,0.03765432098765432,94.06049382716047,0)" xlink:href="#am"/><use transform="matrix(0.03765432098765432,0,0,0.03765432098765432,101.59135802469133,0)" xlink:href="#aW"/><use transform="matrix(0.03765432098765432,0,0,0.03765432098765432,108.3691358024691,0)" xlink:href="#ar"/><use transform="matrix(0.03765432098765432,0,0,0.03765432098765432,115.89999999999995,0)" xlink:href="#ap"/><use transform="matrix(0.03765432098765432,0,0,0.03765432098765432,119.6654320987654,0)" xlink:href="#ar"/><use transform="matrix(0.03765432098765432,0,0,0.03765432098765432,127.19629629629625,0)" xlink:href="#aj"/><use transform="matrix(0.03765432098765432,0,0,0.03765432098765432,133.97407407407403,0)" xlink:href="#as"/></g><g id="ag"><use transform="matrix(0.03765432098765432,0,0,0.03765432098765432,0,0)" xlink:href="#aq"/><use transform="matrix(0.03765432098765432,0,0,0.03765432098765432,2.974691358024691,0)" xlink:href="#av"/><use transform="matrix(0.03765432098765432,0,0,0.03765432098765432,10.505555555555555,0)" xlink:href="#ap"/></g><g id="ah"><use transform="matrix(0.03765432098765432,0,0,0.03765432098765432,0,0)" xlink:href="#aG"/><use transform="matrix(0.03765432098765432,0,0,0.03765432098765432,7.530864197530864,0)" xlink:href="#aU"/><use transform="matrix(0.03765432098765432,0,0,0.03765432098765432,15.061728395061728,0)" xlink:href="#aY"/></g></defs></g></svg>